<svg width="61" height="61" viewBox="0 0 61 61" fill="none" xmlns="http://www.w3.org/2000/svg">
<circle cx="30.5" cy="30.5" r="30.5" fill="#D9D9D9"/>
<path d="M46.6663 18.665C45.3663 19.4367 42.758 20.4884 41.2247 20.7917C41.1797 20.8034 41.143 20.8184 41.0997 20.83C39.7447 19.4934 37.888 18.665 35.833 18.665C31.6913 18.665 28.333 22.0234 28.333 26.165C28.333 26.3834 28.3147 26.785 28.333 26.9984C22.7447 26.9984 18.4913 24.0717 15.4413 20.3317C15.1097 21.165 14.9647 22.4817 14.9647 23.7184C14.9647 26.0534 16.7897 28.3467 19.6313 29.7684C19.108 29.9034 18.5313 30 17.9313 30C16.963 30 15.938 29.745 14.9997 28.9717C14.9997 29 14.9997 29.0267 14.9997 29.0567C14.9997 32.32 18.463 34.5417 21.543 35.16C20.918 35.5284 19.658 35.565 19.043 35.565C18.6097 35.565 17.0763 35.3667 16.6663 35.29C17.523 37.965 20.613 39.4684 23.558 39.5217C21.2547 41.3284 19.6563 41.9984 14.9397 41.9984H13.333C16.313 43.9084 20.108 45.3334 23.9113 45.3334C36.2947 45.3334 43.333 35.895 43.333 26.9984C43.333 26.855 43.3297 26.555 43.3247 26.2534C43.3247 26.2234 43.333 26.195 43.333 26.165C43.333 26.12 43.3197 26.0767 43.3197 26.0317C43.3147 25.805 43.3097 25.5934 43.3047 25.4834C44.6213 24.5334 45.763 23.3484 46.6663 21.9984C45.458 22.535 44.1613 22.895 42.7997 23.0584C44.1897 22.225 46.1647 20.2384 46.6663 18.665Z" fill="black"/>
</svg>
