<svg width="60" height="60" viewBox="0 0 60 60" fill="none" xmlns="http://www.w3.org/2000/svg">
<g clip-path="url(#clip0_154_285)">
<path d="M47.3 15.025C46.8 13.55 45.4 12.5 43.75 12.5H16.25C14.6 12.5 13.225 13.55 12.7 15.025L7.5 30V50C7.5 51.375 8.625 52.5 10 52.5H12.5C13.875 52.5 15 51.375 15 50V47.5H45V50C45 51.375 46.125 52.5 47.5 52.5H50C51.375 52.5 52.5 51.375 52.5 50V30L47.3 15.025ZM16.25 40C14.175 40 12.5 38.325 12.5 36.25C12.5 34.175 14.175 32.5 16.25 32.5C18.325 32.5 20 34.175 20 36.25C20 38.325 18.325 40 16.25 40ZM43.75 40C41.675 40 40 38.325 40 36.25C40 34.175 41.675 32.5 43.75 32.5C45.825 32.5 47.5 34.175 47.5 36.25C47.5 38.325 45.825 40 43.75 40ZM12.5 27.5L16.25 16.25H43.75L47.5 27.5H12.5Z" fill="white"/>
</g>
<defs>
<clipPath id="clip0_154_285">
<rect width="60" height="60" fill="white"/>
</clipPath>
</defs>
</svg>
