<svg width="61" height="61" viewBox="0 0 61 61" fill="none" xmlns="http://www.w3.org/2000/svg">
<circle cx="30.5" cy="30.5" r="30.5" fill="#D9D9D9"/>
<path d="M46.9702 21.3101C46.5868 19.8767 45.4568 18.7467 44.0235 18.3634C41.4235 17.6667 31.0002 17.6667 31.0002 17.6667C31.0002 17.6667 20.5768 17.6667 17.9768 18.3634C16.5435 18.7467 15.4135 19.8767 15.0302 21.3101C14.3335 23.9101 14.3335 31.0001 14.3335 31.0001C14.3335 31.0001 14.3335 38.0901 15.0302 40.6901C15.4135 42.1234 16.5435 43.2534 17.9768 43.6367C20.5768 44.3334 31.0002 44.3334 31.0002 44.3334C31.0002 44.3334 41.4235 44.3334 44.0235 43.6367C45.4585 43.2534 46.5868 42.1234 46.9702 40.6901C47.6668 38.0901 47.6668 31.0001 47.6668 31.0001C47.6668 31.0001 47.6668 23.9101 46.9702 21.3101ZM27.6668 36.7734V25.2267L37.6668 31.0001L27.6668 36.7734Z" fill="black"/>
</svg>
