<svg width="61" height="61" viewBox="0 0 61 61" fill="none" xmlns="http://www.w3.org/2000/svg">
<circle cx="30.5" cy="30.5" r="30.5" fill="#D9D9D9"/>
<path d="M23.3333 16C18.7317 16 15 19.7317 15 24.3333V37.6667C15 42.2683 18.7317 46 23.3333 46H36.6667C41.2683 46 45 42.2683 45 37.6667V24.3333C45 19.7317 41.2683 16 36.6667 16H23.3333ZM40 19.3333C40.92 19.3333 41.6667 20.08 41.6667 21C41.6667 21.92 40.92 22.6667 40 22.6667C39.08 22.6667 38.3333 21.92 38.3333 21C38.3333 20.08 39.08 19.3333 40 19.3333ZM30 22.6667C34.6017 22.6667 38.3333 26.3983 38.3333 31C38.3333 35.6017 34.6017 39.3333 30 39.3333C25.3983 39.3333 21.6667 35.6017 21.6667 31C21.6667 26.3983 25.3983 22.6667 30 22.6667ZM30 26C28.6739 26 27.4021 26.5268 26.4645 27.4645C25.5268 28.4021 25 29.6739 25 31C25 32.3261 25.5268 33.5979 26.4645 34.5355C27.4021 35.4732 28.6739 36 30 36C31.3261 36 32.5979 35.4732 33.5355 34.5355C34.4732 33.5979 35 32.3261 35 31C35 29.6739 34.4732 28.4021 33.5355 27.4645C32.5979 26.5268 31.3261 26 30 26Z" fill="black"/>
</svg>
