<svg width="60" height="60" viewBox="0 0 60 60" fill="none" xmlns="http://www.w3.org/2000/svg">
<g clip-path="url(#clip0_154_281)">
<path d="M38.75 28.75C38.75 33.75 32.5 37.5 32.5 41.25H27.5C27.5 37.5 21.25 33.75 21.25 28.75C21.25 23.925 25.175 20 30 20C34.825 20 38.75 23.925 38.75 28.75ZM32.5 43.75H27.5V47.5H32.5V43.75ZM55 30C55 23.1 52.2 16.85 47.675 12.325L45.025 14.975C48.875 18.825 51.25 24.15 51.25 30C51.25 35.85 48.875 41.175 45.025 45.025L47.675 47.6749C52.2 43.15 55 36.9 55 30ZM8.75 30C8.75 24.15 11.125 18.825 14.975 14.975L12.325 12.325C7.8 16.85 5 23.1 5 30C5 36.9 7.8 43.15 12.325 47.6749L14.975 45.025C11.125 41.175 8.75 35.85 8.75 30ZM43.75 30C43.75 33.8 42.2 37.225 39.725 39.725L42.375 42.375C45.55 39.2 47.5 34.825 47.5 30C47.5 25.175 45.55 20.8 42.375 17.625L39.725 20.275C42.2 22.775 43.75 26.2 43.75 30ZM17.625 42.375L20.275 39.725C17.775 37.225 16.25 33.8 16.25 30C16.25 26.2 17.8 22.775 20.275 20.275L17.625 17.625C14.45 20.8 12.5 25.175 12.5 30C12.5 34.825 14.45 39.2 17.625 42.375Z" fill="white"/>
</g>
<defs>
<clipPath id="clip0_154_281">
<rect width="60" height="60" fill="white"/>
</clipPath>
</defs>
</svg>
