<svg width="31" height="31" viewBox="0 0 31 31" fill="none" xmlns="http://www.w3.org/2000/svg">
<path d="M11.75 3C6.93231 3 3 6.93231 3 11.75C3 16.5677 6.93231 20.5 11.75 20.5C13.935 20.5 15.9313 19.685 17.4678 18.3516L18 18.8838V20.5L25.5 28L28 25.5L20.5 18H18.8838L18.3516 17.4678C19.685 15.9313 20.5 13.935 20.5 11.75C20.5 6.93231 16.5677 3 11.75 3ZM11.75 5.5C15.2166 5.5 18 8.28341 18 11.75C18 15.2166 15.2166 18 11.75 18C8.28341 18 5.5 15.2166 5.5 11.75C5.5 8.28341 8.28341 5.5 11.75 5.5Z" fill="white"/>
</svg>
