<svg width="23" height="23" viewBox="0 0 23 23" fill="none" xmlns="http://www.w3.org/2000/svg">
<path d="M10 17.5C10 18.1875 10.5625 18.75 11.25 18.75C11.9375 18.75 12.5 18.1875 12.5 17.5C12.5 16.8125 11.9375 16.25 11.25 16.25C10.5625 16.25 10 16.8125 10 17.5ZM10 0V5H12.5V2.6C16.7375 3.2125 20 6.8375 20 11.25C20 16.0875 16.0875 20 11.25 20C6.4125 20 2.5 16.0875 2.5 11.25C2.5 9.15 3.2375 7.225 4.475 5.725L11.25 12.5L13.0125 10.7375L4.5125 2.2375V2.2625C1.775 4.3125 0 7.5625 0 11.25C0 17.4625 5.025 22.5 11.25 22.5C17.4625 22.5 22.5 17.4625 22.5 11.25C22.5 5.0375 17.4625 0 11.25 0H10ZM18.75 11.25C18.75 10.5625 18.1875 10 17.5 10C16.8125 10 16.25 10.5625 16.25 11.25C16.25 11.9375 16.8125 12.5 17.5 12.5C18.1875 12.5 18.75 11.9375 18.75 11.25ZM3.75 11.25C3.75 11.9375 4.3125 12.5 5 12.5C5.6875 12.5 6.25 11.9375 6.25 11.25C6.25 10.5625 5.6875 10 5 10C4.3125 10 3.75 10.5625 3.75 11.25Z" fill="black"/>
</svg>
