<svg width="39" height="41" viewBox="0 0 39 41" fill="none" xmlns="http://www.w3.org/2000/svg">
<path d="M19.625 15.875H23.375V10.25H29V6.5H23.375V0.875H19.625V6.5H14V10.25H19.625V15.875ZM12.125 32.75C10.0625 32.75 8.39375 34.4375 8.39375 36.5C8.39375 38.5625 10.0625 40.25 12.125 40.25C14.1875 40.25 15.875 38.5625 15.875 36.5C15.875 34.4375 14.1875 32.75 12.125 32.75ZM30.875 32.75C28.8125 32.75 27.1438 34.4375 27.1438 36.5C27.1438 38.5625 28.8125 40.25 30.875 40.25C32.9375 40.25 34.625 38.5625 34.625 36.5C34.625 34.4375 32.9375 32.75 30.875 32.75ZM12.4438 26.6562L12.5 26.4312L14.1875 23.375H28.1562C29.5625 23.375 30.8 22.6063 31.4375 21.4438L38.675 8.3L35.4125 6.5H35.3937L33.3312 10.25L28.1562 19.625H14.9937L14.75 19.1187L10.55 10.25L8.76875 6.5L7.00625 2.75H0.875V6.5H4.625L11.375 20.7313L8.84375 25.325C8.54375 25.85 8.375 26.4688 8.375 27.125C8.375 29.1875 10.0625 30.875 12.125 30.875H34.625V27.125H12.9125C12.6687 27.125 12.4438 26.9188 12.4438 26.6562Z" fill="black"/>
</svg>
