<svg width="23" height="24" viewBox="0 0 23 24" fill="none" xmlns="http://www.w3.org/2000/svg">
<path d="M10 18.0844C10 18.7728 10.5625 19.3361 11.25 19.3361C11.9375 19.3361 12.5 18.7728 12.5 18.0844C12.5 17.3959 11.9375 16.8326 11.25 16.8326C10.5625 16.8326 10 17.3959 10 18.0844ZM10 0.559326V5.56648H12.5V3.16305C16.7375 3.77642 20 7.40661 20 11.8254C20 16.6698 16.0875 20.5879 11.25 20.5879C6.4125 20.5879 2.5 16.6698 2.5 11.8254C2.5 9.72242 3.2375 7.79466 4.475 6.29252L11.25 13.0772L13.0125 11.3122L4.5125 2.80003V2.82506C1.775 4.878 0 8.13265 0 11.8254C0 18.0468 5.025 23.0915 11.25 23.0915C17.4625 23.0915 22.5 18.0468 22.5 11.8254C22.5 5.60403 17.4625 0.559326 11.25 0.559326H10ZM18.75 11.8254C18.75 11.1369 18.1875 10.5736 17.5 10.5736C16.8125 10.5736 16.25 11.1369 16.25 11.8254C16.25 12.5139 16.8125 13.0772 17.5 13.0772C18.1875 13.0772 18.75 12.5139 18.75 11.8254ZM3.75 11.8254C3.75 12.5139 4.3125 13.0772 5 13.0772C5.6875 13.0772 6.25 12.5139 6.25 11.8254C6.25 11.1369 5.6875 10.5736 5 10.5736C4.3125 10.5736 3.75 11.1369 3.75 11.8254Z" fill="black"/>
</svg>
